
<svg width="800" height="450" viewBox="0 0 800 450" fill="none" xmlns="http://www.w3.org/2000/svg">
  <rect width="800" height="450" rx="8" fill="#F8FAFC"/>
  <rect x="20" y="20" width="760" height="60" rx="4" fill="#E2E8F0"/>
  <rect x="40" y="40" width="120" height="20" rx="4" fill="#94A3B8"/>
  <rect x="600" y="40" width="160" height="20" rx="4" fill="#94A3B8"/>
  
  <rect x="20" y="100" width="500" height="330" rx="4" fill="#E2E8F0"/>
  <rect x="40" y="120" width="200" height="20" rx="4" fill="#94A3B8"/>
  <rect x="40" y="150" width="460" height="260" rx="4" fill="#CBD5E1"/>
  <path d="M40 350 Q120 280 200 320 Q280 360 360 250 Q440 140 500 180" stroke="#0EA5E9" stroke-width="3" fill="none"/>
  <path d="M40 350 Q120 280 200 320 Q280 360 360 250 Q440 140 500 180" stroke="url(#paint0_linear)" stroke-width="3" fill="none" stroke-opacity="0.5"/>
  
  <rect x="540" y="100" width="240" height="150" rx="4" fill="#E2E8F0"/>
  <rect x="560" y="120" width="120" height="20" rx="4" fill="#94A3B8"/>
  <rect x="560" y="150" width="200" height="10" rx="2" fill="#CBD5E1"/>
  <rect x="560" y="170" width="180" height="10" rx="2" fill="#CBD5E1"/>
  <rect x="560" y="190" width="200" height="10" rx="2" fill="#CBD5E1"/>
  <rect x="560" y="210" width="160" height="10" rx="2" fill="#CBD5E1"/>
  <rect x="560" y="230" width="200" height="10" rx="2" fill="#CBD5E1"/>
  
  <rect x="540" y="270" width="240" height="160" rx="4" fill="#E2E8F0"/>
  <rect x="560" y="290" width="120" height="20" rx="4" fill="#94A3B8"/>
  <circle cx="580" cy="340" r="20" fill="#0EA5E9"/>
  <circle cx="640" cy="340" r="20" fill="#0284C7"/>
  <circle cx="700" cy="340" r="20" fill="#0369A1"/>
  <circle cx="760" cy="340" r="20" fill="#075985"/>
  <rect x="560" y="380" width="200" height="30" rx="4" fill="#94A3B8"/>
  
  <defs>
    <linearGradient id="paint0_linear" x1="40" y1="350" x2="500" y2="180" gradientUnits="userSpaceOnUse">
      <stop stop-color="#0EA5E9" stop-opacity="0.2"/>
      <stop offset="1" stop-color="#0EA5E9" stop-opacity="0"/>
    </linearGradient>
  </defs>
</svg>
