<svg width="600" height="400" viewBox="0 0 600 400" fill="none" xmlns="http://www.w3.org/2000/svg">
  <rect width="600" height="400" rx="8" fill="#F8FAFC"/>
  
  <!-- Background elements -->
  <circle cx="150" cy="200" r="120" fill="#E0F2FE" opacity="0.6"/>
  <circle cx="450" cy="200" r="120" fill="#CCFBF1" opacity="0.6"/>
  <circle cx="300" cy="200" r="150" fill="#EFF6FF" opacity="0.6"/>
  
  <!-- Central dashboard -->
  <rect x="200" y="100" width="200" height="200" rx="8" fill="white" stroke="#CBD5E1" stroke-width="2"/>
  <rect x="220" y="120" width="160" height="30" rx="4" fill="#0EA5E9"/>
  <rect x="220" y="160" width="160" height="10" rx="2" fill="#E2E8F0"/>
  <rect x="220" y="180" width="160" height="10" rx="2" fill="#E2E8F0"/>
  <rect x="220" y="200" width="160" height="10" rx="2" fill="#E2E8F0"/>
  <rect x="220" y="220" width="100" height="10" rx="2" fill="#E2E8F0"/>
  <rect x="220" y="260" width="160" height="20" rx="4" fill="#0EA5E9"/>
  
  <!-- Left document -->
  <rect x="100" y="150" width="80" height="100" rx="4" fill="white" stroke="#CBD5E1" stroke-width="2"/>
  <rect x="110" y="160" width="60" height="10" rx="2" fill="#E2E8F0"/>
  <rect x="110" y="180" width="60" height="10" rx="2" fill="#E2E8F0"/>
  <rect x="110" y="200" width="60" height="10" rx="2" fill="#E2E8F0"/>
  <rect x="110" y="220" width="40" height="10" rx="2" fill="#E2E8F0"/>
  
  <!-- Right document -->
  <rect x="420" y="150" width="80" height="100" rx="4" fill="white" stroke="#CBD5E1" stroke-width="2"/>
  <rect x="430" y="160" width="60" height="10" rx="2" fill="#E2E8F0"/>
  <rect x="430" y="180" width="60" height="10" rx="2" fill="#E2E8F0"/>
  <rect x="430" y="200" width="60" height="10" rx="2" fill="#E2E8F0"/>
  <rect x="430" y="220" width="40" height="10" rx="2" fill="#E2E8F0"/>
  
  <!-- Connection lines -->
  <line x1="180" y1="200" x2="200" y2="200" stroke="#0EA5E9" stroke-width="2" stroke-dasharray="4 4"/>
  <line x1="400" y1="200" x2="420" y2="200" stroke="#0EA5E9" stroke-width="2" stroke-dasharray="4 4"/>
  
  <!-- Icons -->
  <circle cx="300" cy="50" r="20" fill="#0EA5E9"/>
  <path d="M290 50 L300 40 L310 50 L300 60 Z" fill="white"/>
  <path d="M300 40 L300 60" stroke="white" stroke-width="2"/>
  <path d="M290 50 L310 50" stroke="white" stroke-width="2"/>
  
  <circle cx="150" cy="320" r="20" fill="#0EA5E9"/>
  <path d="M145 320 L155 330 L165 315" stroke="white" stroke-width="2" fill="none"/>
  
  <circle cx="450" cy="320" r="20" fill="#0EA5E9"/>
  <path d="M440 320 L450 310 L460 320 L450 330 Z" fill="white"/>
</svg>
